<mxfile modified="2022-05-02T02:05:21.289Z" host="app.diagrams.net" agent="5.0 (Windows NT 10.0; Win64; x64) AppleWebKit/537.36 (KHTML, like Gecko) Chrome/100.0.4896.127 Safari/537.36 Edg/100.0.1185.50" etag="Y391ZK4wX2xpgyTEpVJn" compressed="false" version="17.5.0" type="google">
  <diagram id="uJewTiHXaNtHGO4uoLR4" name="Constraints/Legal">
    <mxGraphModel grid="1" page="1" gridSize="10" guides="1" tooltips="1" connect="1" arrows="1" fold="1" pageScale="1" pageWidth="827" pageHeight="1169" math="0" shadow="0">
      <root>
        <mxCell id="rhp4sE3xphnoTrhWa3b3-0" />
        <mxCell id="rhp4sE3xphnoTrhWa3b3-1" parent="rhp4sE3xphnoTrhWa3b3-0" />
        <mxCell id="rhp4sE3xphnoTrhWa3b3-2" value="Privacy Act" style="rounded=0;whiteSpace=wrap;html=1;" vertex="1" parent="rhp4sE3xphnoTrhWa3b3-1">
          <mxGeometry x="120" y="160" width="90" height="40" as="geometry" />
        </mxCell>
        <mxCell id="rhp4sE3xphnoTrhWa3b3-4" value="Records Act" style="rounded=0;whiteSpace=wrap;html=1;" vertex="1" parent="rhp4sE3xphnoTrhWa3b3-1">
          <mxGeometry x="120" y="210" width="90" height="40" as="geometry" />
        </mxCell>
        <mxCell id="rhp4sE3xphnoTrhWa3b3-5" value="Education Act" style="rounded=0;whiteSpace=wrap;html=1;" vertex="1" parent="rhp4sE3xphnoTrhWa3b3-1">
          <mxGeometry x="120" y="260" width="90" height="40" as="geometry" />
        </mxCell>
        <mxCell id="rhp4sE3xphnoTrhWa3b3-7" value="Collecting private information (PII) is not a right. Ensure Users are made aware of why data is collected, how long it will be used, who it will be shared with, how they can correct it, how they can ask for it to be removed." style="text;html=1;strokeColor=none;fillColor=none;align=left;verticalAlign=top;whiteSpace=wrap;rounded=0;spacing=0;" vertex="1" parent="rhp4sE3xphnoTrhWa3b3-1">
          <mxGeometry x="240" y="156" width="440" height="50" as="geometry" />
        </mxCell>
        <mxCell id="rhp4sE3xphnoTrhWa3b3-9" value="The public who funds government work are able to access current and archived anonymized data collected by government systems. Records MUST not be deleted (only State changed).&lt;br&gt;.&amp;nbsp;" style="text;html=1;strokeColor=none;fillColor=none;align=left;verticalAlign=top;whiteSpace=wrap;rounded=0;spacing=0;" vertex="1" parent="rhp4sE3xphnoTrhWa3b3-1">
          <mxGeometry x="240" y="210" width="440" height="50" as="geometry" />
        </mxCell>
        <mxCell id="rhp4sE3xphnoTrhWa3b3-10" value="Education System Identifiers (eg: NSI) may not be shared between systems without prior approval.&amp;nbsp;" style="text;html=1;strokeColor=none;fillColor=none;align=left;verticalAlign=top;whiteSpace=wrap;rounded=0;spacing=0;" vertex="1" parent="rhp4sE3xphnoTrhWa3b3-1">
          <mxGeometry x="240" y="260" width="440" height="50" as="geometry" />
        </mxCell>
        <mxCell id="rhp4sE3xphnoTrhWa3b3-11" value="Laws" style="text;html=1;strokeColor=none;fillColor=none;align=center;verticalAlign=middle;whiteSpace=wrap;rounded=0;fontStyle=1" vertex="1" parent="rhp4sE3xphnoTrhWa3b3-1">
          <mxGeometry x="100" y="130" width="40" height="20" as="geometry" />
        </mxCell>
        <mxCell id="rhp4sE3xphnoTrhWa3b3-12" value="Regulations" style="text;html=1;strokeColor=none;fillColor=none;align=center;verticalAlign=middle;whiteSpace=wrap;rounded=0;fontStyle=1" vertex="1" parent="rhp4sE3xphnoTrhWa3b3-1">
          <mxGeometry x="120" y="330" width="40" height="20" as="geometry" />
        </mxCell>
        <mxCell id="rhp4sE3xphnoTrhWa3b3-14" value="NZWUG" style="rounded=0;whiteSpace=wrap;html=1;" vertex="1" parent="rhp4sE3xphnoTrhWa3b3-1">
          <mxGeometry x="120" y="410" width="90" height="40" as="geometry" />
        </mxCell>
        <mxCell id="rhp4sE3xphnoTrhWa3b3-15" value="Digital services provided by the government must be available to the large number of citizens and internal users by meeting defined Usability and Accessibility standards." style="text;html=1;strokeColor=none;fillColor=none;align=left;verticalAlign=top;whiteSpace=wrap;rounded=0;spacing=0;" vertex="1" parent="rhp4sE3xphnoTrhWa3b3-1">
          <mxGeometry x="240" y="410" width="440" height="50" as="geometry" />
        </mxCell>
        <mxCell id="rhp4sE3xphnoTrhWa3b3-16" value="NZISM" style="rounded=0;whiteSpace=wrap;html=1;" vertex="1" parent="rhp4sE3xphnoTrhWa3b3-1">
          <mxGeometry x="120" y="460" width="90" height="40" as="geometry" />
        </mxCell>
        <mxCell id="rhp4sE3xphnoTrhWa3b3-17" value="Citizens must be able to trust that the government agency systems which manage and store their personal information follow security best practices, or Governance make Decisions to accept the Risk of not doing so.&amp;nbsp;" style="text;html=1;strokeColor=none;fillColor=none;align=left;verticalAlign=top;whiteSpace=wrap;rounded=0;spacing=0;" vertex="1" parent="rhp4sE3xphnoTrhWa3b3-1">
          <mxGeometry x="240" y="455" width="440" height="50" as="geometry" />
        </mxCell>
        <mxCell id="rhp4sE3xphnoTrhWa3b3-18" value="Digital Principles" style="rounded=0;whiteSpace=wrap;html=1;" vertex="1" parent="rhp4sE3xphnoTrhWa3b3-1">
          <mxGeometry x="120" y="510" width="90" height="40" as="geometry" />
        </mxCell>
        <mxCell id="rhp4sE3xphnoTrhWa3b3-19" value="Citizens should be able to expect government agency digital services to be seamless, easily accessible, understandable and inclusive." style="text;html=1;strokeColor=none;fillColor=none;align=left;verticalAlign=top;whiteSpace=wrap;rounded=0;spacing=0;" vertex="1" parent="rhp4sE3xphnoTrhWa3b3-1">
          <mxGeometry x="240" y="505" width="440" height="50" as="geometry" />
        </mxCell>
        <mxCell id="9Grhlgq618cWQOXIDECg-0" value="&lt;font style=&quot;font-size: 12px ; font-weight: normal&quot;&gt;&lt;i&gt;&lt;span&gt;Diagram: Obligations Context -&amp;nbsp;&lt;/span&gt;Constraints - Legal and Regulatory&lt;/i&gt;&lt;/font&gt;" style="text;strokeColor=none;fillColor=none;html=1;fontSize=12;fontStyle=1;verticalAlign=middle;align=left;shadow=0;glass=0;comic=0;opacity=30;fontColor=#808080;" vertex="1" parent="rhp4sE3xphnoTrhWa3b3-1">
          <mxGeometry x="120" y="570" width="520" height="30" as="geometry" />
        </mxCell>
        <mxCell id="DpONmxwKGlp-B0683X56-0" value="Type" style="rounded=0;whiteSpace=wrap;html=1;fontStyle=1;fillColor=#f5f5f5;strokeColor=#666666;fontColor=#333333;" vertex="1" parent="rhp4sE3xphnoTrhWa3b3-1">
          <mxGeometry x="120" y="100" width="90" height="20" as="geometry" />
        </mxCell>
        <mxCell id="DpONmxwKGlp-B0683X56-1" value="Key Outcomes" style="rounded=0;whiteSpace=wrap;html=1;fontStyle=1;fillColor=#f5f5f5;strokeColor=#666666;fontColor=#333333;" vertex="1" parent="rhp4sE3xphnoTrhWa3b3-1">
          <mxGeometry x="240" y="100" width="440" height="20" as="geometry" />
        </mxCell>
        <mxCell id="S8VxHGN7FgCSHb4pI5Rf-0" value="Standards" style="rounded=0;whiteSpace=wrap;html=1;" vertex="1" parent="rhp4sE3xphnoTrhWa3b3-1">
          <mxGeometry x="120" y="360" width="90" height="40" as="geometry" />
        </mxCell>
        <mxCell id="S8VxHGN7FgCSHb4pI5Rf-1" value="Government Agencies are mandated to use international standards when ever they are available in order to decrease risk of non-delivery. ISO standards&amp;nbsp; exist for technical Delivery (Waterfall &amp;amp; Agile), Data Formatting, Environments, etc.&amp;nbsp; &amp;nbsp;" style="text;html=1;strokeColor=none;fillColor=none;align=left;verticalAlign=top;whiteSpace=wrap;rounded=0;spacing=0;" vertex="1" parent="rhp4sE3xphnoTrhWa3b3-1">
          <mxGeometry x="240" y="360" width="440" height="50" as="geometry" />
        </mxCell>
      </root>
    </mxGraphModel>
  </diagram>
</mxfile>
